<svg width="51" height="51" viewBox="0 0 51 51" fill="none" xmlns="http://www.w3.org/2000/svg">
<path d="M21.6123 48.4987C24.3738 51.2818 26.9381 51.2599 29.6997 48.4987L33.0748 45.1458C33.4255 44.8171 33.7323 44.6855 34.1926 44.6855H38.9266C42.8496 44.6855 44.6689 42.8886 44.6689 38.944V34.2105C44.6689 33.7503 44.8003 33.4435 45.1289 33.0929L48.4603 29.7181C51.2656 26.9569 51.2437 24.3929 48.4603 21.6317L45.1289 18.2569C44.8003 17.9282 44.6689 17.5995 44.6689 17.1613V12.4058C44.6689 8.50502 42.8717 6.66427 38.9266 6.66427H34.1926C33.7323 6.66427 33.4255 6.55468 33.0748 6.22593L29.6997 2.87308C26.9381 0.0899254 24.3738 0.111898 21.6123 2.87308L18.2371 6.22593C17.9084 6.55468 17.5796 6.66427 17.1413 6.66427H12.3853C8.46225 6.66427 6.64317 8.46126 6.64317 12.4058V17.1613C6.64317 17.5995 6.53357 17.9282 6.20488 18.2569L2.85155 21.6317C0.0681754 24.3929 0.0900572 26.9569 2.85155 29.7181L6.20488 33.0929C6.53357 33.4435 6.64317 33.7503 6.64317 34.2105V38.944C6.64317 42.8667 8.46225 44.6855 12.3853 44.6855H17.1413C17.5796 44.6855 17.9084 44.8171 18.2371 45.1458L21.6123 48.4987ZM21.963 36.7088C21.2836 36.7088 20.8453 36.4896 20.5166 36.1171L13.1963 27.9868C12.8895 27.6363 12.7141 27.1979 12.7141 26.7377C12.7141 25.7077 13.5032 24.9407 14.6209 24.9407C15.2127 24.9407 15.651 25.138 16.0455 25.5544L21.8534 31.9753L33.1406 16.0874C33.5789 15.4519 34.0172 15.1889 34.7844 15.1889C35.8583 15.1889 36.6254 15.9778 36.6254 17.0078C36.6254 17.3803 36.4719 17.8187 36.2308 18.1692L23.4533 36.0294C23.1246 36.4458 22.6206 36.7088 21.963 36.7088Z" fill="white"/>
</svg>
