<svg width="78" height="78" viewBox="0 0 78 78" fill="none" xmlns="http://www.w3.org/2000/svg">
<path fill-rule="evenodd" clip-rule="evenodd" d="M39.2606 28.6665C33.5372 28.6665 28.8975 33.3062 28.8975 39.0297C28.8975 44.7532 33.5372 49.3928 39.2606 49.3928C44.9841 49.3928 49.6238 44.7532 49.6238 39.0297C49.6238 33.3062 44.9841 28.6665 39.2606 28.6665ZM33.0427 39.0297C33.0427 35.5957 35.8267 32.8118 39.2606 32.8118C42.6946 32.8118 45.4785 35.5957 45.4785 39.0297C45.4785 42.4636 42.6946 45.2476 39.2606 45.2476C35.8267 45.2476 33.0427 42.4636 33.0427 39.0297Z" fill="white"/>
<path fill-rule="evenodd" clip-rule="evenodd" d="M39.2607 14.8491C26.7859 14.8491 18.3832 22.3222 13.5064 28.658L13.4184 28.7722C12.3155 30.2047 11.2997 31.5239 10.6105 33.0839C9.87255 34.7544 9.55298 36.575 9.55298 39.0298C9.55298 41.4847 9.87255 43.3053 10.6105 44.9758C11.2997 46.5358 12.3155 47.8551 13.4184 49.2874L13.5064 49.4016C18.3832 55.7375 26.7859 63.2106 39.2607 63.2106C51.7355 63.2106 60.1382 55.7375 65.015 49.4016L65.1029 49.2874C66.2061 47.8551 67.2217 46.5358 67.9109 44.9758C68.649 43.3053 68.9685 41.4847 68.9685 39.0298C68.9685 36.575 68.649 34.7544 67.9109 33.0839C67.2217 31.5239 66.2061 30.2046 65.1029 28.7722L65.015 28.658C60.1382 22.3222 51.7355 14.8491 39.2607 14.8491ZM16.7912 31.1865C21.2941 25.3364 28.6222 18.9944 39.2607 18.9944C49.8991 18.9944 57.2274 25.3364 61.7303 31.1865C62.9424 32.7611 63.6523 33.7021 64.1191 34.7588C64.5557 35.7468 64.8232 36.9542 64.8232 39.0298C64.8232 41.1055 64.5557 42.3129 64.1191 43.3009C63.6523 44.3576 62.9424 45.2986 61.7303 46.8732C57.2274 52.7233 49.8991 59.0653 39.2607 59.0653C28.6222 59.0653 21.2941 52.7233 16.7912 46.8732C15.5792 45.2986 14.8693 44.3576 14.4023 43.3009C13.9659 42.3129 13.6982 41.1055 13.6982 39.0298C13.6982 36.9542 13.9659 35.7468 14.4023 34.7588C14.8693 33.7021 15.5792 32.7611 16.7912 31.1865Z" fill="white"/>
</svg>
