<svg width="129" height="191" viewBox="0 0 129 191" fill="none" xmlns="http://www.w3.org/2000/svg">
<g clip-path="url(#clip0_73_576)">
<path d="M-2.93332 198.596V194.131L53.3968 127.496C62.2127 117.077 69.0822 108.376 74.0054 101.392C78.9285 94.3506 82.3919 88.1108 84.3955 82.6724C86.3991 77.1768 87.4009 71.5095 87.4009 65.6704C87.4009 57.9994 85.6263 51.1585 82.0771 45.1477C78.5851 39.1368 73.7764 34.414 67.6511 30.9793C61.583 27.5445 54.6562 25.8271 46.8707 25.8271C38.7418 25.8271 31.5861 27.6876 25.4035 31.4086C19.2209 35.0724 14.3836 39.9955 10.8916 46.1781C7.39959 52.3607 5.65359 59.2016 5.65359 66.7008H0.15797C0.15797 58.1711 2.13296 50.4143 6.08294 43.4303C10.0902 36.389 15.5858 30.7789 22.5698 26.5999C29.6111 22.421 37.7114 20.3315 46.8707 20.3315C55.6866 20.3315 63.558 22.3065 70.4847 26.2565C77.4115 30.1492 82.8785 35.5303 86.8857 42.3998C90.893 49.2121 92.8966 56.969 92.8966 65.6704C92.8966 72.1392 91.8089 78.3218 89.6335 84.2181C87.5154 90.1144 83.8803 96.6977 78.7282 103.968C73.6333 111.238 66.5634 120.226 57.5185 130.931L5.65359 192.413V193.1H103.201V198.596H-2.93332Z" fill="white"/>
</g>
<defs>
<clipPath id="clip0_73_576">
<rect width="128.016" height="190.601" fill="white" transform="translate(0.34375 0.155762)"/>
</clipPath>
</defs>
</svg>
