<svg width="129" height="192" viewBox="0 0 129 192" fill="none" xmlns="http://www.w3.org/2000/svg">
<g clip-path="url(#clip0_73_584)">
<path d="M27.934 248.113C15.819 248.113 4.92948 245.662 -4.73454 240.76C-14.3285 235.858 -21.9267 229.135 -27.529 220.591C-33.1314 212.048 -35.9325 202.314 -35.9325 191.389H-29.2097C-29.2097 201.053 -26.6887 209.667 -21.6466 217.23C-16.6045 224.723 -9.77664 230.64 -1.16306 234.982C7.52056 239.254 17.2196 241.39 27.934 241.39C39.3488 241.39 49.328 239.044 57.8715 234.352C66.4151 229.66 73.0678 223.357 77.8298 215.444C82.6618 207.531 85.0778 198.812 85.0778 189.288C85.0778 178.994 82.3467 169.96 76.8844 162.187C71.4221 154.414 63.894 148.391 54.3 144.119C44.7761 139.778 33.8865 137.607 21.6314 137.607H18.27V130.884H21.6314C32.4159 130.884 42.1149 128.888 50.7285 124.896C59.3421 120.905 66.17 115.267 71.2121 107.984C76.2542 100.701 78.7752 92.0877 78.7752 82.1436C78.7752 72.8997 76.6043 64.6363 72.2625 57.3532C67.9207 50.0702 61.8982 44.3278 54.195 40.1261C46.5618 35.9243 37.6681 33.8234 27.5139 33.8234C17.4997 33.8234 8.60601 35.9593 0.832774 40.2311C-6.94046 44.4329 -13.068 50.3153 -17.5499 57.8785C-21.9617 65.3716 -24.1676 74.0202 -24.1676 83.8243H-30.8904C-30.8904 72.7597 -28.3694 62.9556 -23.3273 54.412C-18.2852 45.8685 -11.3873 39.1807 -2.63367 34.3487C6.19 29.5167 16.2392 27.1006 27.5139 27.1006C38.7886 27.1006 48.7677 29.5167 57.4513 34.3487C66.205 39.1106 73.0678 45.6584 78.0399 53.9918C83.012 62.2553 85.498 71.6392 85.498 82.1436C85.498 94.7488 81.8915 105.568 74.6785 114.602C67.4655 123.636 57.7665 129.903 45.5814 133.405V134.245C59.6572 137.817 70.8619 144.469 79.1954 154.204C87.5989 163.938 91.8006 175.632 91.8006 189.288C91.8006 200.283 89.0695 210.227 83.6072 219.121C78.215 228.014 70.7219 235.087 61.1279 240.339C51.5339 245.522 40.4693 248.113 27.934 248.113Z" fill="white"/>
</g>
<defs>
<clipPath id="clip0_73_584">
<rect width="128.016" height="190.601" fill="white" transform="translate(0.34375 0.843262)"/>
</clipPath>
</defs>
</svg>
